<?xml version="1.0" encoding="iso-8859-1"?>
<!-- Uploaded to: SVG Repo, www.svgrepo.com, Generator: SVG Repo Mixer Tools -->
<svg fill="#000000" height="800px" width="800px" version="1.1" id="Layer_1" xmlns="http://www.w3.org/2000/svg" xmlns:xlink="http://www.w3.org/1999/xlink" 
	 viewBox="0 0 512 512" xml:space="preserve">
<g>
	<g>
		<path d="M490.667,0H21.333C9.552,0,0,9.551,0,21.333v469.333C0,502.449,9.552,512,21.333,512h469.333
			c11.782,0,21.333-9.551,21.333-21.333V21.333C512,9.551,502.45,0,490.667,0z M469.334,469.333L469.334,469.333H42.667V42.667
			h426.667V469.333z"/>
	</g>
</g>
<g>
	<g>
		<path d="M192,64h-85.333c-11.782,0-21.333,9.551-21.333,21.333v341.333C85.333,438.449,94.885,448,106.667,448H192
			c11.782,0,21.333-9.551,21.333-21.333V85.333C213.333,73.551,203.782,64,192,64z M170.667,405.334H128V106.667h42.667V405.334z"/>
	</g>
</g>
<g>
	<g>
		<path d="M405.333,234.664h-97.83l27.582-27.582c8.331-8.331,8.331-21.839,0-30.17s-21.839-8.331-30.17,0l-64,64
			c-0.008,0.008-0.014,0.016-0.021,0.023c-0.488,0.49-0.952,1.004-1.392,1.54c-0.203,0.251-0.38,0.512-0.571,0.767
			c-0.226,0.302-0.461,0.598-0.671,0.913c-0.204,0.304-0.38,0.62-0.566,0.932c-0.17,0.285-0.349,0.564-0.506,0.857
			c-0.17,0.318-0.315,0.646-0.468,0.971c-0.145,0.306-0.297,0.607-0.428,0.921c-0.13,0.315-0.236,0.637-0.35,0.957
			c-0.121,0.337-0.25,0.669-0.354,1.013c-0.097,0.32-0.168,0.646-0.249,0.969c-0.089,0.351-0.187,0.698-0.258,1.055
			c-0.074,0.375-0.118,0.753-0.173,1.13c-0.044,0.311-0.104,0.617-0.135,0.933c-0.138,1.4-0.138,2.811,0,4.211
			c0.031,0.315,0.09,0.621,0.135,0.933c0.054,0.377,0.098,0.756,0.173,1.13c0.071,0.358,0.169,0.704,0.258,1.055
			c0.081,0.324,0.152,0.649,0.249,0.969c0.104,0.344,0.233,0.677,0.354,1.013c0.115,0.32,0.22,0.642,0.35,0.957
			c0.13,0.314,0.283,0.615,0.428,0.921c0.153,0.325,0.297,0.653,0.468,0.971c0.157,0.293,0.336,0.572,0.506,0.857
			c0.186,0.312,0.363,0.628,0.566,0.932c0.211,0.315,0.445,0.611,0.671,0.913c0.191,0.255,0.368,0.516,0.571,0.764
			c0.439,0.535,0.903,1.05,1.392,1.54c0.007,0.008,0.014,0.016,0.021,0.023l64,64c8.331,8.331,21.839,8.331,30.17,0
			c8.331-8.331,8.331-21.839,0-30.17l-27.582-27.582h97.83c11.782,0,21.333-9.551,21.333-21.333
			C426.667,244.215,417.116,234.664,405.333,234.664z"/>
	</g>
</g>
</svg>